<svg width="16" height="16" viewBox="0 0 16 16" fill="none" xmlns="http://www.w3.org/2000/svg">
<path fill-rule="evenodd" clip-rule="evenodd" d="M12.5 12.6181C12.8069 12.3434 13 11.9443 13 11.5V6.9772C13 6.5115 12.7837 6.07221 12.4146 5.78827L8.91457 3.09596C8.37539 2.68121 7.62461 2.68121 7.08543 3.09596L3.58543 5.78827C3.53929 5.82376 3.49554 5.86168 3.4543 5.90178C3.16561 6.18245 3 6.56971 3 6.9772V11.5C3 11.9443 3.19313 12.3434 3.5 12.6181C3.7638 12.8542 4.11167 12.9983 4.49316 13C4.49544 13 4.49772 13 4.5 13L5 13V9.49998C5 8.39542 5.89543 7.49998 7 7.49998H9C10.1046 7.49998 11 8.39541 11 9.49998V13H11.5C11.5023 13 11.5046 13 11.5068 13C11.8883 12.9983 12.2362 12.8542 12.5 12.6181ZM14.5 11.5C14.5 13.1569 13.1569 14.5 11.5 14.5H4.5C2.84315 14.5 1.5 13.1569 1.5 11.5V6.9772C1.5 6.0458 1.93261 5.16722 2.67087 4.59933L6.17087 1.90702C7.24922 1.07752 8.75078 1.07752 9.82913 1.90702L13.3291 4.59933C13.4214 4.67032 13.5089 4.74616 13.5914 4.82635C14.1688 5.38769 14.5 6.16222 14.5 6.9772V11.5ZM9.5 9.49998C9.5 9.22384 9.27614 8.99998 9 8.99998H7C6.72386 8.99998 6.5 9.22384 6.5 9.49998V13H9.5V9.49998Z" fill="#647A8D"/>
</svg>
