<svg width="130" height="69" viewBox="0 0 130 69" fill="none" xmlns="http://www.w3.org/2000/svg">
<circle cx="96.0015" cy="34.7505" r="7.75" stroke="#FA00FF" stroke-width="0.5"/>
<path d="M15.4515 48.0505C13.4848 48.0505 11.6515 47.7838 9.95147 47.2505C8.2848 46.6838 6.81813 45.8505 5.55147 44.7505C4.31813 43.6505 3.3348 42.2672 2.60146 40.6005C1.90146 38.9338 1.55146 36.9838 1.55146 34.7505C1.55146 32.5505 1.90146 30.6672 2.60146 29.1005C3.3348 27.5005 4.2848 26.2005 5.45147 25.2005C6.61813 24.1672 7.95147 23.4172 9.45147 22.9505C10.9515 22.4505 12.4848 22.2005 14.0515 22.2005C15.8181 22.2005 17.4181 22.4672 18.8515 23.0005C20.3181 23.5338 21.5681 24.2672 22.6015 25.2005C23.6681 26.1338 24.4848 27.2505 25.0515 28.5505C25.6515 29.8505 25.9515 31.2672 25.9515 32.8005C25.9515 33.9338 25.6348 34.8005 25.0015 35.4005C24.3681 36.0005 23.4848 36.3838 22.3515 36.5505L10.0015 38.4005C10.3681 39.5005 11.1181 40.3338 12.2515 40.9005C13.3848 41.4338 14.6848 41.7005 16.1515 41.7005C17.5181 41.7005 18.8015 41.5338 20.0015 41.2005C21.2348 40.8338 22.2348 40.4172 23.0015 39.9505C23.5348 40.2838 23.9848 40.7505 24.3515 41.3505C24.7181 41.9505 24.9015 42.5838 24.9015 43.2505C24.9015 44.7505 24.2015 45.8672 22.8015 46.6005C21.7348 47.1672 20.5348 47.5505 19.2015 47.7505C17.8681 47.9505 16.6181 48.0505 15.4515 48.0505ZM14.0515 28.4005C13.2515 28.4005 12.5515 28.5338 11.9515 28.8005C11.3848 29.0672 10.9181 29.4172 10.5515 29.8505C10.1848 30.2505 9.90147 30.7172 9.70147 31.2505C9.5348 31.7505 9.4348 32.2672 9.40147 32.8005L17.9515 31.4005C17.8515 30.7338 17.4848 30.0672 16.8515 29.4005C16.2181 28.7338 15.2848 28.4005 14.0515 28.4005Z" fill="#FA00FF"/>
<path d="M43.7429 28.9005C42.9095 28.9005 42.1095 29.0338 41.3429 29.3005C40.6095 29.5672 39.9595 29.9672 39.3929 30.5005C38.8595 31.0005 38.4262 31.6338 38.0929 32.4005C37.7595 33.1672 37.5929 34.0672 37.5929 35.1005C37.5929 37.1672 38.1762 38.7172 39.3429 39.7505C40.5429 40.7838 41.9929 41.3005 43.6929 41.3005C44.6929 41.3005 45.5595 41.1838 46.2929 40.9505C47.0262 40.7172 47.6762 40.4672 48.2429 40.2005C48.9095 40.6672 49.4095 41.1838 49.7429 41.7505C50.0762 42.2838 50.2429 42.9338 50.2429 43.7005C50.2429 45.0672 49.5929 46.1338 48.2929 46.9005C46.9929 47.6338 45.1929 48.0005 42.8929 48.0005C40.7929 48.0005 38.8929 47.7005 37.1929 47.1005C35.4929 46.4672 34.0262 45.6005 32.7929 44.5005C31.5929 43.3672 30.6595 42.0172 29.9929 40.4505C29.3262 38.8838 28.9929 37.1505 28.9929 35.2505C28.9929 33.0505 29.3429 31.1338 30.0429 29.5005C30.7762 27.8338 31.7595 26.4672 32.9929 25.4005C34.2262 24.3338 35.6429 23.5338 37.2429 23.0005C38.8762 22.4672 40.5929 22.2005 42.3929 22.2005C44.7929 22.2005 46.6429 22.6338 47.9429 23.5005C49.2429 24.3672 49.8929 25.4838 49.8929 26.8505C49.8929 27.4838 49.7429 28.0838 49.4429 28.6505C49.1429 29.1838 48.7929 29.6505 48.3929 30.0505C47.8262 29.7838 47.1429 29.5338 46.3429 29.3005C45.5429 29.0338 44.6762 28.9005 43.7429 28.9005ZM78.5058 47.2005C78.1724 47.3005 77.6391 47.4005 76.9058 47.5005C76.2058 47.6005 75.4724 47.6505 74.7058 47.6505C73.9724 47.6505 73.3058 47.6005 72.7058 47.5005C72.1391 47.4005 71.6558 47.2005 71.2558 46.9005C70.8558 46.6005 70.5391 46.2005 70.3058 45.7005C70.1058 45.1672 70.0058 44.4838 70.0058 43.6505V32.5505C70.0058 31.1838 69.6558 30.2338 68.9558 29.7005C68.2891 29.1338 67.4558 28.8505 66.4558 28.8505C65.7891 28.8505 65.1558 28.9338 64.5558 29.1005C63.9558 29.2672 63.4724 29.4672 63.1058 29.7005V47.2005C62.7724 47.3005 62.2391 47.4005 61.5058 47.5005C60.8058 47.6005 60.0724 47.6505 59.3058 47.6505C58.5724 47.6505 57.9058 47.6005 57.3058 47.5005C56.7391 47.4005 56.2558 47.2005 55.8558 46.9005C55.4558 46.6005 55.1391 46.2005 54.9058 45.7005C54.7058 45.1672 54.6058 44.4838 54.6058 43.6505V14.6505C54.9724 14.5838 55.5058 14.5005 56.2058 14.4005C56.9391 14.2672 57.6724 14.2005 58.4058 14.2005C59.1391 14.2005 59.7891 14.2505 60.3558 14.3505C60.9558 14.4505 61.4558 14.6505 61.8558 14.9505C62.2558 15.2505 62.5558 15.6672 62.7558 16.2005C62.9891 16.7005 63.1058 17.3672 63.1058 18.2005V23.1005C63.5391 22.9338 64.1891 22.7505 65.0558 22.5505C65.9558 22.3172 66.9391 22.2005 68.0058 22.2005C71.3058 22.2005 73.8724 23.0338 75.7058 24.7005C77.5724 26.3338 78.5058 28.7838 78.5058 32.0505V47.2005ZM108.904 35.1005C108.904 37.1672 108.587 39.0172 107.954 40.6505C107.32 42.2505 106.42 43.6005 105.254 44.7005C104.12 45.8005 102.754 46.6338 101.154 47.2005C99.5538 47.7672 97.7705 48.0505 95.8038 48.0505C93.8371 48.0505 92.0538 47.7505 90.4538 47.1505C88.8538 46.5505 87.4705 45.7005 86.3038 44.6005C85.1705 43.4672 84.2871 42.1005 83.6538 40.5005C83.0205 38.9005 82.7038 37.1005 82.7038 35.1005C82.7038 33.1338 83.0205 31.3505 83.6538 29.7505C84.2871 28.1505 85.1705 26.8005 86.3038 25.7005C87.4705 24.5672 88.8538 23.7005 90.4538 23.1005C92.0538 22.5005 93.8371 22.2005 95.8038 22.2005C97.7705 22.2005 99.5538 22.5172 101.154 23.1505C102.754 23.7505 104.12 24.6172 105.254 25.7505C106.42 26.8505 107.32 28.2005 107.954 29.8005C108.587 31.4005 108.904 33.1672 108.904 35.1005ZM91.4038 35.1005C91.4038 37.1338 91.7871 38.7005 92.5538 39.8005C93.3538 40.8672 94.4538 41.4005 95.8538 41.4005C97.2538 41.4005 98.3205 40.8505 99.0538 39.7505C99.8205 38.6505 100.204 37.1005 100.204 35.1005C100.204 33.1005 99.8205 31.5672 99.0538 30.5005C98.2871 29.4005 97.2038 28.8505 95.8038 28.8505C94.4038 28.8505 93.3205 29.4005 92.5538 30.5005C91.7871 31.5672 91.4038 33.1005 91.4038 35.1005Z" fill="#040316"/>
<path d="M111.062 43.2005C111.062 41.8005 111.496 40.6338 112.362 39.7005C113.229 38.7672 114.412 38.3005 115.912 38.3005C117.412 38.3005 118.596 38.7672 119.462 39.7005C120.329 40.6338 120.762 41.8005 120.762 43.2005C120.762 44.6005 120.329 45.7672 119.462 46.7005C118.596 47.6338 117.412 48.1005 115.912 48.1005C114.412 48.1005 113.229 47.6338 112.362 46.7005C111.496 45.7672 111.062 44.6005 111.062 43.2005Z" fill="#180092"/>
<path d="M91.4038 34.6005C91.4038 36.6338 91.7871 38.2005 92.5538 39.3005C93.3538 40.3671 94.4538 40.9005 95.8538 40.9005C97.2538 40.9005 98.3205 40.3505 99.0538 39.2505C99.8205 38.1505 100.204 36.6005 100.204 34.6005C100.204 32.6005 99.8205 31.0671 99.0538 30.0005C98.2871 28.9005 97.2038 28.3505 95.8038 28.3505C94.4038 28.3505 93.3205 28.9005 92.5538 30.0005C91.7871 31.0671 91.4038 32.6005 91.4038 34.6005Z" fill="#FA00FF"/>
</svg>
